<?xml version="1.0" encoding="utf-8"?>
<!-- Generator: Adobe Illustrator 25.2.1, SVG Export Plug-In . SVG Version: 6.00 Build 0)  -->
<svg version="1.1" id="Camada_1" xmlns="http://www.w3.org/2000/svg" xmlns:xlink="http://www.w3.org/1999/xlink" x="0px" y="0px"
	 viewBox="0 0 1080 1080" style="enable-background:new 0 0 1080 1080;" xml:space="preserve">
<style type="text/css">
	.st0{fill:#EE7490;}
</style>
<path class="st0" d="M1010.31,644.68L785.08,855.26v-94.99H549v60.76h95.72c12.78,0,23.15,10.37,23.1,23.15l-0.43,80
	c-0.19,41.42-29.75,77.34-70.54,84.38c-9.11,1.59-19,2.51-29.61,2.51c-137.14,0-225.67-87.61-225.67-236.03
	c0-146.68,92.87-235.21,235.21-235.21c59.02,0,98.08,11.28,129.32,25.17l18.23-105.02c-24.3-11.28-78.11-36.55-145.81-36.55
	c-196.35,0-368.78,113.99-369.84,326.15c0,13.07,1.74,26.47,4.87,39.97L65.94,631.66c-35.78-38.24-33.75-98.22,4.48-134
	L498.61,97.35c38.24-35.73,98.22-33.75,133.95,4.48l382.28,408.85C1050.58,548.92,1048.55,608.91,1010.31,644.68z"/>
</svg>
