<svg xmlns="http://www.w3.org/2000/svg" xmlns:xlink="http://www.w3.org/1999/xlink" width="1080" zoomAndPan="magnify" viewBox="0 0 810 404.99999" height="540" preserveAspectRatio="xMidYMid meet" version="1.0"><path fill="#ee7490" d="M 138.71875 308.503906 C 131.5625 311.070312 117.433594 315.292969 100.738281 315.292969 C 82.023438 315.292969 66.609375 310.519531 54.5 298.960938 C 43.855469 288.6875 37.25 272.171875 37.25 252.90625 C 37.433594 216.207031 62.757812 189.054688 104.222656 189.054688 C 118.535156 189.054688 129.910156 192.355469 135.050781 194.742188 L 131.195312 207.769531 C 124.589844 204.832031 116.335938 202.449219 103.855469 202.449219 C 73.765625 202.449219 54.132812 221.164062 54.132812 252.171875 C 54.132812 283.546875 72.847656 302.082031 101.839844 302.082031 C 112.296875 302.082031 119.453125 300.613281 123.121094 298.777344 L 123.121094 261.898438 L 97.984375 261.898438 L 97.984375 249.054688 L 138.71875 249.054688 Z M 138.71875 308.503906 " fill-opacity="1" fill-rule="nonzero"/><path fill="#ee7490" d="M 231.5625 256.027344 L 183.671875 256.027344 L 183.671875 300.796875 L 237.25 300.796875 L 237.25 314.007812 L 167.527344 314.007812 L 167.527344 190.335938 L 234.5 190.335938 L 234.5 203.546875 L 183.671875 203.546875 L 183.671875 242.8125 L 231.5625 242.8125 Z M 231.5625 256.027344 " fill-opacity="1" fill-rule="nonzero"/><path fill="#ee7490" d="M 260.1875 294.558594 C 267.34375 298.960938 277.800781 302.632812 288.8125 302.632812 C 305.140625 302.632812 314.683594 294.007812 314.683594 281.53125 C 314.683594 269.96875 308.078125 263.363281 291.195312 256.941406 C 271.195312 249.96875 258.71875 239.144531 258.71875 221.898438 C 258.71875 202.816406 274.683594 188.503906 298.71875 188.503906 C 311.195312 188.503906 320.554688 191.4375 326.058594 194.375 L 321.65625 207.402344 C 317.617188 205.199219 309.363281 201.53125 298.167969 201.53125 C 281.289062 201.53125 274.867188 211.621094 274.867188 220.0625 C 274.867188 231.621094 282.390625 237.308594 299.453125 243.914062 C 320.371094 252.171875 331.011719 262.082031 331.011719 280.246094 C 331.011719 299.328125 316.882812 316.027344 287.710938 316.027344 C 275.601562 316.027344 262.574219 312.355469 255.96875 307.953125 Z M 260.1875 294.558594 " fill-opacity="1" fill-rule="nonzero"/><path fill="#ee7490" d="M 380.921875 203.914062 L 343.304688 203.914062 L 343.304688 190.335938 L 434.867188 190.335938 L 434.867188 203.914062 L 397.066406 203.914062 L 397.066406 314.007812 L 380.921875 314.007812 Z M 380.921875 203.914062 " fill-opacity="1" fill-rule="nonzero"/><path fill="#ee7490" d="M 469.179688 190.335938 L 469.179688 242.265625 L 528.996094 242.265625 L 528.996094 190.335938 L 544.957031 190.335938 L 544.957031 314.007812 L 528.996094 314.007812 L 528.996094 256.027344 L 469.179688 256.027344 L 469.179688 314.007812 L 453.03125 314.007812 L 453.03125 190.335938 Z M 469.179688 190.335938 " fill-opacity="1" fill-rule="nonzero"/><path fill="#ee7490" d="M 597.433594 275.109375 L 584.773438 314.007812 L 568.078125 314.007812 L 610.277344 190.335938 L 629.359375 190.335938 L 671.5625 314.007812 L 654.5 314.007812 L 641.289062 275.109375 Z M 637.984375 262.632812 L 625.875 227.035156 C 623.121094 218.960938 621.289062 211.621094 619.453125 204.464844 L 618.902344 204.464844 C 617.25 211.804688 615.234375 219.328125 612.847656 226.851562 L 600.738281 262.632812 Z M 637.984375 262.632812 " fill-opacity="1" fill-rule="nonzero"/><path fill="#ee7490" d="M 694.132812 191.988281 C 702.386719 190.335938 713.949219 189.421875 724.957031 189.421875 C 742.023438 189.421875 753.03125 192.539062 760.738281 199.511719 C 766.792969 205.015625 770.460938 213.457031 770.460938 222.996094 C 770.460938 239.328125 760.1875 250.152344 747.160156 254.558594 L 747.160156 254.925781 C 756.699219 258.410156 762.386719 267.402344 765.324219 280.0625 C 769.359375 297.492188 772.296875 309.238281 774.867188 314.007812 L 758.351562 314.007812 C 756.332031 310.519531 753.582031 299.878906 750.09375 284.464844 C 746.425781 267.585938 739.820312 260.980469 725.324219 260.429688 L 710.277344 260.429688 L 710.277344 314.007812 L 694.132812 314.007812 Z M 710.277344 248.320312 L 726.609375 248.320312 C 743.671875 248.320312 754.5 238.960938 754.5 224.832031 C 754.5 208.6875 742.9375 201.898438 726.058594 201.714844 C 718.167969 201.714844 712.847656 202.449219 710.277344 203.179688 Z M 710.277344 248.320312 " fill-opacity="1" fill-rule="nonzero"/><path fill="#ee7490" d="M 486.148438 105.640625 L 447.191406 142.0625 L 447.191406 125.632812 L 406.359375 125.632812 L 406.359375 136.140625 L 422.914062 136.140625 C 425.125 136.140625 426.917969 137.933594 426.910156 140.144531 L 426.835938 153.980469 C 426.800781 161.144531 421.6875 167.359375 414.632812 168.578125 C 413.054688 168.851562 411.347656 169.011719 409.511719 169.011719 C 385.792969 169.011719 370.480469 153.855469 370.480469 128.1875 C 370.480469 102.816406 386.542969 87.5 411.164062 87.5 C 421.371094 87.5 428.125 89.453125 433.53125 91.855469 L 436.683594 73.691406 C 432.480469 71.738281 423.171875 67.367188 411.464844 67.367188 C 377.5 67.367188 347.675781 87.085938 347.492188 123.78125 C 347.492188 126.042969 347.792969 128.359375 348.335938 130.695312 L 322.804688 103.390625 C 316.617188 96.777344 316.96875 86.402344 323.582031 80.210938 L 397.644531 10.972656 C 404.257812 4.792969 414.632812 5.132812 420.8125 11.746094 L 486.933594 82.464844 C 493.113281 89.078125 492.765625 99.453125 486.148438 105.640625 Z M 486.148438 105.640625 " fill-opacity="1" fill-rule="nonzero"/><path fill="#ee7490" d="M 39.578125 353.574219 C 40.746094 354.289062 42.464844 354.890625 44.265625 354.890625 C 46.933594 354.890625 48.503906 353.480469 48.503906 351.4375 C 48.503906 349.546875 47.417969 348.46875 44.65625 347.417969 C 41.386719 346.277344 39.34375 344.507812 39.34375 341.679688 C 39.34375 338.5625 41.957031 336.21875 45.890625 336.21875 C 47.933594 336.21875 49.460938 336.699219 50.363281 337.175781 L 49.644531 339.3125 C 48.984375 338.953125 47.636719 338.351562 45.800781 338.351562 C 43.039062 338.351562 41.988281 340.003906 41.988281 341.386719 C 41.988281 343.28125 43.222656 344.207031 46.007812 345.292969 C 49.429688 346.640625 51.171875 348.261719 51.171875 351.238281 C 51.171875 354.355469 48.859375 357.09375 44.089844 357.09375 C 42.105469 357.09375 39.980469 356.492188 38.894531 355.773438 Z M 39.578125 353.574219 " fill-opacity="1" fill-rule="nonzero"/><path fill="#ee7490" d="M 84.734375 336.515625 L 87.375 336.515625 L 87.375 356.75 L 84.734375 356.75 Z M 84.734375 336.515625 " fill-opacity="1" fill-rule="nonzero"/><path fill="#ee7490" d="M 121.605469 353.574219 C 122.773438 354.289062 124.492188 354.890625 126.292969 354.890625 C 128.960938 354.890625 130.527344 353.480469 130.527344 351.4375 C 130.527344 349.546875 129.445312 348.46875 126.683594 347.417969 C 123.414062 346.277344 121.371094 344.507812 121.371094 341.679688 C 121.371094 338.5625 123.980469 336.21875 127.917969 336.21875 C 129.960938 336.21875 131.488281 336.699219 132.390625 337.175781 L 131.671875 339.3125 C 131.011719 338.953125 129.660156 338.351562 127.828125 338.351562 C 125.066406 338.351562 124.015625 340.003906 124.015625 341.386719 C 124.015625 343.28125 125.25 344.207031 128.035156 345.292969 C 131.453125 346.640625 133.199219 348.261719 133.199219 351.238281 C 133.199219 354.355469 130.886719 357.09375 126.117188 357.09375 C 124.132812 357.09375 122.003906 356.492188 120.921875 355.773438 Z M 121.605469 353.574219 " fill-opacity="1" fill-rule="nonzero"/><path fill="#ee7490" d="M 170.628906 338.746094 L 164.472656 338.746094 L 164.472656 336.527344 L 179.453125 336.527344 L 179.453125 338.746094 L 173.265625 338.746094 L 173.265625 356.757812 L 170.621094 356.757812 L 170.621094 338.746094 Z M 170.628906 338.746094 " fill-opacity="1" fill-rule="nonzero"/><path fill="#ee7490" d="M 222.1875 347.269531 L 214.347656 347.269531 L 214.347656 354.589844 L 223.113281 354.589844 L 223.113281 356.75 L 211.707031 356.75 L 211.707031 336.515625 L 222.664062 336.515625 L 222.664062 338.675781 L 214.347656 338.675781 L 214.347656 345.101562 L 222.1875 345.101562 Z M 222.1875 347.269531 " fill-opacity="1" fill-rule="nonzero"/><path fill="#ee7490" d="M 273.589844 347.867188 C 273.40625 345.074219 273.230469 341.65625 273.257812 339.160156 L 273.164062 339.160156 C 272.472656 341.503906 271.570312 344.230469 270.578125 346.933594 L 267.078125 356.632812 L 265.007812 356.632812 L 261.796875 347 C 260.804688 344.148438 260.027344 341.539062 259.488281 339.167969 L 259.394531 339.167969 C 259.304688 341.664062 259.210938 345.023438 259.003906 348.085938 L 258.460938 356.757812 L 255.96875 356.757812 L 257.375 336.527344 L 260.710938 336.527344 L 264.164062 346.34375 C 265.007812 348.777344 265.667969 351.171875 266.175781 353.273438 L 266.265625 353.273438 C 266.777344 351.230469 267.5 348.859375 268.425781 346.308594 L 272.03125 336.527344 L 275.367188 336.527344 L 276.625 356.757812 L 274.039062 356.757812 Z M 273.589844 347.867188 " fill-opacity="1" fill-rule="nonzero"/><path fill="#ee7490" d="M 313.640625 350.386719 L 311.570312 356.75 L 308.835938 356.75 L 315.742188 336.515625 L 318.859375 336.515625 L 325.765625 356.75 L 322.972656 356.75 L 320.8125 350.386719 Z M 320.277344 348.351562 L 318.292969 342.53125 C 317.84375 341.214844 317.542969 340.011719 317.242188 338.835938 L 317.152344 338.835938 C 316.882812 340.035156 316.550781 341.269531 316.160156 342.496094 L 314.171875 348.351562 Z M 320.277344 348.351562 " fill-opacity="1" fill-rule="nonzero"/><path fill="#ee7490" d="M 395.15625 336.792969 C 396.777344 336.550781 398.667969 336.375 400.746094 336.375 C 404.5 336.375 407.167969 337.242188 408.945312 338.894531 C 410.746094 340.546875 411.796875 342.914062 411.796875 346.160156 C 411.796875 349.460938 410.777344 352.128906 408.886719 354.023438 C 406.96875 355.917969 403.875 356.933594 399.9375 356.933594 C 398.078125 356.933594 396.515625 356.84375 395.167969 356.691406 L 395.167969 336.792969 Z M 397.800781 354.683594 C 398.460938 354.800781 399.417969 354.832031 400.445312 354.832031 C 406.035156 354.832031 409.0625 351.714844 409.0625 346.25 C 409.09375 341.480469 406.390625 338.445312 400.863281 338.445312 C 399.511719 338.445312 398.492188 338.59375 397.800781 338.710938 Z M 397.800781 354.683594 " fill-opacity="1" fill-rule="nonzero"/><path fill="#ee7490" d="M 455.65625 347.269531 L 447.828125 347.269531 L 447.828125 354.589844 L 456.59375 354.589844 L 456.59375 356.75 L 445.183594 356.75 L 445.183594 336.515625 L 456.140625 336.515625 L 456.140625 338.675781 L 447.828125 338.675781 L 447.828125 345.101562 L 455.660156 345.101562 L 455.660156 347.269531 Z M 455.65625 347.269531 " fill-opacity="1" fill-rule="nonzero"/><path fill="#ee7490" d="M 541.796875 355.859375 C 540.628906 356.277344 538.308594 356.96875 535.582031 356.96875 C 532.523438 356.96875 529.996094 356.183594 528.019531 354.300781 C 526.273438 352.613281 525.199219 349.921875 525.199219 346.769531 C 525.234375 340.761719 529.371094 336.316406 536.160156 336.316406 C 538.503906 336.316406 540.363281 336.859375 541.203125 337.25 L 540.570312 339.386719 C 539.484375 338.902344 538.136719 338.519531 536.101562 338.519531 C 531.179688 338.519531 527.96875 341.578125 527.96875 346.652344 C 527.96875 351.789062 531.027344 354.816406 535.773438 354.816406 C 537.484375 354.816406 538.660156 354.574219 539.261719 354.273438 L 539.261719 348.242188 L 535.148438 348.242188 L 535.148438 346.140625 L 541.8125 346.140625 L 541.8125 355.859375 Z M 541.796875 355.859375 " fill-opacity="1" fill-rule="nonzero"/><path fill="#ee7490" d="M 586.265625 347.269531 L 578.433594 347.269531 L 578.433594 354.589844 L 587.199219 354.589844 L 587.199219 356.75 L 575.792969 356.75 L 575.792969 336.515625 L 586.75 336.515625 L 586.75 338.675781 L 578.433594 338.675781 L 578.433594 345.101562 L 586.265625 345.101562 Z M 586.265625 347.269531 " fill-opacity="1" fill-rule="nonzero"/><path fill="#ee7490" d="M 620.226562 353.574219 C 621.394531 354.289062 623.113281 354.890625 624.914062 354.890625 C 627.585938 354.890625 629.152344 353.480469 629.152344 351.4375 C 629.152344 349.546875 628.070312 348.46875 625.308594 347.417969 C 622.039062 346.277344 619.996094 344.507812 619.996094 341.679688 C 619.996094 338.5625 622.605469 336.21875 626.542969 336.21875 C 628.585938 336.21875 630.113281 336.699219 631.011719 337.175781 L 630.296875 339.3125 C 629.636719 338.953125 628.285156 338.351562 626.449219 338.351562 C 623.691406 338.351562 622.640625 340.003906 622.640625 341.386719 C 622.640625 343.28125 623.875 344.207031 626.660156 345.292969 C 630.078125 346.640625 631.820312 348.261719 631.820312 351.238281 C 631.820312 354.355469 629.511719 357.09375 624.730469 357.09375 C 622.746094 357.09375 620.621094 356.492188 619.535156 355.773438 Z M 620.226562 353.574219 " fill-opacity="1" fill-rule="nonzero"/><path fill="#ee7490" d="M 669.253906 338.746094 L 663.097656 338.746094 L 663.097656 336.527344 L 678.078125 336.527344 L 678.078125 338.746094 L 671.886719 338.746094 L 671.886719 356.757812 L 669.253906 356.757812 Z M 669.253906 338.746094 " fill-opacity="1" fill-rule="nonzero"/><path fill="#ee7490" d="M 711.378906 350.386719 L 709.3125 356.75 L 706.574219 356.75 L 713.480469 336.515625 L 716.601562 336.515625 L 723.507812 356.75 L 720.710938 356.75 L 718.550781 350.386719 Z M 710.988281 335.234375 C 710.929688 333.164062 711.886719 331.988281 713.238281 331.988281 C 714.046875 331.988281 714.558594 332.253906 715.375 332.679688 C 715.917969 332.980469 716.390625 333.222656 716.816406 333.222656 C 717.324219 333.222656 717.601562 332.957031 717.683594 331.90625 L 719.277344 331.90625 C 719.3125 334.039062 718.527344 335.089844 716.96875 335.089844 C 716.25 335.089844 715.648438 334.792969 714.925781 334.433594 C 714.230469 334.074219 713.871094 333.890625 713.457031 333.890625 C 712.949219 333.890625 712.671875 334.398438 712.613281 335.242188 L 710.988281 335.242188 Z M 718.019531 348.351562 L 716.035156 342.53125 C 715.582031 341.214844 715.28125 340.011719 714.980469 338.835938 L 714.890625 338.835938 C 714.625 340.035156 714.289062 341.269531 713.898438 342.496094 L 711.914062 348.351562 Z M 718.019531 348.351562 " fill-opacity="1" fill-rule="nonzero"/><path fill="#ee7490" d="M 773.347656 346.609375 C 773.347656 353.332031 769.050781 357.085938 763.949219 357.085938 C 758.484375 357.085938 754.847656 352.789062 754.847656 346.757812 C 754.847656 340.546875 758.71875 336.191406 764.308594 336.191406 C 770.078125 336.191406 773.347656 340.753906 773.347656 346.609375 Z M 757.652344 346.667969 C 757.652344 351.261719 759.996094 354.949219 764.105469 354.949219 C 768.367188 354.949219 770.585938 351.078125 770.585938 346.667969 C 770.585938 342.523438 768.578125 338.320312 764.132812 338.320312 C 759.929688 338.320312 757.652344 342.105469 757.652344 346.667969 Z M 757.652344 346.667969 " fill-opacity="1" fill-rule="nonzero"/></svg>