<svg width="800" height="800" viewBox="0 0 800 800" fill="none" xmlns="http://www.w3.org/2000/svg">
<path d="M775.95 487.936L595.766 667.292V586.387H406.902V638.138H483.478C493.702 638.138 501.998 646.97 501.958 657.855L501.614 725.993C501.462 761.272 477.814 791.866 445.182 797.862C437.894 799.216 429.982 800 421.494 800C311.782 800 240.958 725.38 240.958 598.967C240.958 474.035 315.254 398.632 429.126 398.632C476.342 398.632 507.59 408.24 532.582 420.07L547.166 330.622C527.726 321.014 484.678 299.491 430.518 299.491C273.438 299.491 135.494 396.579 134.646 577.282C134.646 588.414 136.038 599.827 138.542 611.325L20.4539 476.846C-8.17007 444.276 -6.54607 393.19 24.0379 362.715L366.59 21.7598C397.182 -8.67239 445.166 -6.98597 473.75 25.5756L779.574 373.804C808.166 406.374 806.542 457.469 775.95 487.936Z" fill="#EE7490" fill-opacity="0.15"/>
</svg>
